<svg xmlns="http://www.w3.org/2000/svg" width="1023.522" height="1021.408" viewBox="0 0 1023.522 1021.408">
  <g id="wolf" transform="translate(0 -1.19)">
    <path id="Caminho_1" data-name="Caminho 1" d="M127.6,2.8C109.4,7.8,97.8,19.2,89.8,40c-6.4,17-8,63.4-7.4,219.8.6,142.4.6,143.4-3.8,160.6-9.2,36.2-27,61.4-52,74C11,502.2,2.8,512,.8,525.4-1.6,542,2,548.8,25.2,571.2l21,20.2-8.6,8.8a143.471,143.471,0,0,1-18,15.6C9.4,623,0,638.6,0,647.8c0,9.8,4.4,20.6,11.4,28.2,3.8,4.4,27.4,25.8,52.2,47.8,196.2,172.6,337.2,272.6,416,294.6,53,14.8,111.4-8.2,228.4-90.4,30.4-21.4,35.8-26.8,39.2-39.8,8-31.2-23.2-59.4-52-47.4-3.6,1.6-15,8.8-25.4,16.4-39.4,28.6-97,64.4-115.6,72.2-6.2,2.6-5,1,9-12.6,18.8-18.4,33-36.8,41-53.8,6.6-13.6,7-18.8,2.8-27-6.4-12.4-3.8-12-96-12s-89.6-.4-96,12c-4.2,8.2-3.8,13.4,2.8,27,7.8,16.6,22,35.4,40,52.8L473,930.6l-19-9.8c-46.8-24.6-112.4-70.6-195-136.6-38.2-30.6-53.8-43.6-107.8-90.2-18.4-16-35.4-30.4-37.8-32.2-4-3.4-4-3.4,3-12,11.6-14.6,22-31,41.6-65.8,42.2-75.4,63-98.8,95.4-107.4,14.4-3.8,39.6-2.4,59.6,3.4,19.8,5.6,51,21.4,72,36.2,22.2,15.8,63.4,56.6,82,81.4,21,27.8,36.8,34.2,58.4,23.4,7.4-3.8,12.8-8.8,20.2-18.6,35.2-47.2,86.8-92,128.6-111.2,32.2-14.8,66.4-20.4,89.8-14.4,16,4.2,28.2,11.8,42.4,26.8,14.4,15.2,23.2,28.6,50.4,76.2,26,45.6,34,58,45.4,71,7,8,7.8,9.8,5.6,12.4-1.4,1.8-21.2,19.2-43.8,38.8-22.8,19.6-43,38.2-45,41.2-2.6,3.8-4,10.2-4.6,18.8-.8,15.8,4.2,25.6,17.2,35,7.6,5.2,10.4,6,21,6,7-.2,14.8-1.4,17.8-3,14.4-7.8,142.2-121,148-131.2,10.2-17.6,4.8-38.8-13.4-52.6a186.727,186.727,0,0,1-17.8-15.4l-7.2-7.4,18.2-18.8c21.4-22.2,26.8-32.4,25-47.4-1.6-14.6-9.2-24.2-25.8-32.8-24.8-12.8-42-36.4-51.8-71.4L941,407V238c-.2-178.6-.6-186.4-9.4-205.4A57.426,57.426,0,0,0,904.2,5.4C892.2-.2,868.8.2,840,6,754.8,23.2,680.2,74.2,627,151c-5.4,7.6-10.2,14.8-11,15.6s-14.4-.4-30.2-2.8c-41-6.2-106.6-6.2-147.6,0-15.8,2.4-29.4,3.6-30.2,2.8s-5.6-8-11-15.6C351,84.6,290.6,38.2,219.8,15.2c-35.4-11.4-76-17-92.2-12.4Zm61.6,86.4c37,10.6,76,34.2,105.6,64,15.8,15.6,34.6,38.2,33,39.6-.4.4-8.2,3.8-17.2,7.6C286.2,211,255.2,229,248.2,237c-21.4,24.4-5.2,62.2,27.6,64.6,10.4.8,12.6,0,28.2-8.4,60.8-33.2,111.4-48.4,177.4-53.4,83.8-6.6,162.4,11.2,240.6,54.4,13.6,7.4,16,8.2,26.4,7.4,15.4-1.2,26.4-8.4,32.8-22.2,7.4-16.2,5.4-30.2-6.2-43.2-7.4-8.2-34-23.6-61-35.6-9.4-4-17.4-7.6-17.8-8-1-.6,8.8-13.4,20.6-26.6,23.8-26.4,54.6-49.4,85.8-64,16.2-7.6,48.2-18,55.6-18,3.6,0,3.8,4.8,3.8,180V444l-14.2-11.8C812,402,768,389.8,718.8,396c-64,8-124.4,40.8-187.2,101.8L508,520.6l-26.6-25.8c-40.4-39.4-77-64.8-117.6-81.6-44.4-18.4-94-23.8-130.8-14.2-17.4,4.4-42.4,17-55.6,27.6-6.2,5.2-11.8,9.4-12.4,9.4s-1-79.2-1-176c0-171.2.2-176,3.8-176,2,0,11.8,2.4,21.4,5.2Z" fill="#67dd0a"/>
    <path id="Caminho_2" data-name="Caminho 2" d="M303.4,556c-6.8,5.4-8.4,14.4-5.4,31.6,5,30.2,20.6,51.2,47.4,64,20,9.4,32.6,10,39.8,1.8,6.2-7.2,6-13.8-.2-32-9.6-27.6-30.6-51.8-55.8-64.4-12.2-6-19-6.4-25.8-1Z" fill="#67dd0a"/>
    <path id="Caminho_3" data-name="Caminho 3" d="M690.8,557c-25.4,12.8-45.2,35.8-55.6,64.6-6.4,18.2-6.6,24.6-.4,31.8,7.2,8.2,19.8,7.6,39.8-1.8,26.8-12.8,42.4-33.8,47.4-64,3-17.2,1.4-26.2-5.4-31.6S703,551,690.8,557Z" fill="#67dd0a"/>
  </g>
</svg>
